<?xml version="1.0" encoding="UTF-8" standalone="no"?>
<!-- Generator: Adobe Illustrator 19.0.0, SVG Export Plug-In . SVG Version: 6.00 Build 0)  -->

<svg
   xmlns:dc="http://purl.org/dc/elements/1.1/"
   xmlns:cc="http://creativecommons.org/ns#"
   xmlns:rdf="http://www.w3.org/1999/02/22-rdf-syntax-ns#"
   xmlns:svg="http://www.w3.org/2000/svg"
   xmlns="http://www.w3.org/2000/svg"
   xmlns:sodipodi="http://sodipodi.sourceforge.net/DTD/sodipodi-0.dtd"
   xmlns:inkscape="http://www.inkscape.org/namespaces/inkscape"
   version="1.1"
   id="Layer_1"
   x="0px"
   y="0px"
   viewBox="0 0 512.00078 493.278"
   xml:space="preserve"
   sodipodi:docname="star.svg"
   width="512.00079"
   height="493.27802"
   inkscape:version="0.92.2 (5c3e80d, 2017-08-06)"><metadata
     id="metadata43"><rdf:RDF><cc:Work
         rdf:about=""><dc:format>image/svg+xml</dc:format><dc:type
           rdf:resource="http://purl.org/dc/dcmitype/StillImage" /><dc:title /></cc:Work></rdf:RDF></metadata><defs
     id="defs41" /><sodipodi:namedview
     pagecolor="#ffffff"
     bordercolor="#666666"
     borderopacity="1"
     objecttolerance="10"
     gridtolerance="10"
     guidetolerance="10"
     inkscape:pageopacity="0"
     inkscape:pageshadow="2"
     inkscape:window-width="1680"
     inkscape:window-height="998"
     id="namedview39"
     showgrid="false"
     fit-margin-top="0"
     fit-margin-left="0"
     fit-margin-right="0"
     fit-margin-bottom="0"
     inkscape:zoom="0.6518615"
     inkscape:cx="-327.04311"
     inkscape:cy="255.59569"
     inkscape:window-x="-8"
     inkscape:window-y="-8"
     inkscape:window-maximized="1"
     inkscape:current-layer="Layer_1" /><path
     style="fill:#f8d66e;fill-opacity:1"
     d="m 400.0692,493.278 c -3.551,0 -7.116,-0.825 -10.398,-2.5 l -133.671,-68.19 -133.671,68.19 c -3.283,1.675 -6.848,2.5 -10.399,2.5 -4.728,0 -9.431,-1.464 -13.407997,-4.336 -6.961,-5.031 -10.52,-13.537 -9.215,-22.026 L 112.3022,317.268 6.5782033,209.874 c -6.00199997,-6.096 -8.103,-15.031 -5.446,-23.163 2.656,-8.131 9.6259997,-14.103 18.0689997,-15.481 L 167.1132,147.092 235.6032,12.507 C 239.5072,4.832 247.3892,0 256.0002,0 c 8.611,0 16.493,4.833 20.396,12.507 l 68.49,134.585 147.913,24.138 c 8.444,1.378 15.413,7.35 18.07,15.481 2.656,8.132 0.555,17.067 -5.447,23.163 l -105.723,107.392 22.993,149.648 c 1.305,8.49 -2.254,16.995 -9.215,22.026 -3.976,2.873 -8.68,4.338 -13.408,4.338 z"
     id="path2"
     inkscape:connector-curvature="0" /><g
     style="opacity:0.503;fill:#ff8c00"
     id="g6"
     transform="translate(-7.966709e-4,-9.362)" /><g
     id="g8"
     transform="translate(-7.966709e-4,-9.362)" /><g
     id="g10"
     transform="translate(-7.966709e-4,-9.362)" /><g
     id="g12"
     transform="translate(-7.966709e-4,-9.362)" /><g
     id="g14"
     transform="translate(-7.966709e-4,-9.362)" /><g
     id="g16"
     transform="translate(-7.966709e-4,-9.362)" /><g
     id="g18"
     transform="translate(-7.966709e-4,-9.362)" /><g
     id="g20"
     transform="translate(-7.966709e-4,-9.362)" /><g
     id="g22"
     transform="translate(-7.966709e-4,-9.362)" /><g
     id="g24"
     transform="translate(-7.966709e-4,-9.362)" /><g
     id="g26"
     transform="translate(-7.966709e-4,-9.362)" /><g
     id="g28"
     transform="translate(-7.966709e-4,-9.362)" /><g
     id="g30"
     transform="translate(-7.966709e-4,-9.362)" /><g
     id="g32"
     transform="translate(-7.966709e-4,-9.362)" /><g
     id="g34"
     transform="translate(-7.966709e-4,-9.362)" /><g
     id="g36"
     transform="translate(-7.966709e-4,-9.362)" /></svg>